<?xml version="1.0" encoding="UTF-8" standalone="no"?>
<!DOCTYPE svg PUBLIC "-//W3C//DTD SVG 1.1//EN" "http://www.w3.org/Graphics/SVG/1.1/DTD/svg11.dtd">
<svg width="100%" height="100%" viewBox="0 0 236 61" version="1.1" xmlns="http://www.w3.org/2000/svg" xmlns:xlink="http://www.w3.org/1999/xlink" xml:space="preserve" xmlns:serif="http://www.serif.com/" style="fill-rule:evenodd;clip-rule:evenodd;stroke-linejoin:round;stroke-miterlimit:2;">
    <g id="Capa1">
        <g transform="matrix(0.683405,0,0,0.683405,1.000079,3.159699)">
            <path d="M108.396,65.928C109.97,65.928 111.288,65.304 112.279,64.405L110.709,62.315C110.041,62.914 109.263,63.325 108.396,63.325C106.918,63.325 105.529,62.143 105.529,60.535C105.529,58.947 106.859,57.731 108.454,57.731C109.218,57.731 110.061,58.111 110.698,58.689L112.279,56.66C111.218,55.695 109.785,55.11 108.448,55.09C105.221,55.09 102.74,57.449 102.74,60.516C102.74,63.768 105.47,65.928 108.396,65.928ZM119.817,65.96C123.045,65.96 125.512,63.614 125.512,60.528C125.512,57.417 123.045,55.058 119.823,55.058C116.602,55.058 114.135,57.417 114.135,60.528C114.135,63.614 116.597,65.96 119.817,65.96ZM119.823,63.332C118.178,63.332 116.918,62.103 116.918,60.51C116.918,58.908 118.178,57.675 119.823,57.675C121.47,57.675 122.729,58.908 122.729,60.51C122.729,62.103 121.47,63.332 119.823,63.332ZM131.193,63.113L131.193,55.336L128.442,55.336L128.442,65.697L135.16,65.697L135.16,63.113L131.193,63.113ZM144.626,57.892L144.626,55.336L137.91,55.336L137.91,65.697L144.626,65.697L144.626,63.119L140.628,63.119L140.628,61.633L143.919,61.633L143.919,59.34L140.628,59.34L140.628,57.892L144.626,57.892ZM158.303,59.744L152.988,59.744L152.988,61.795L155.36,61.795C155.322,62.785 154.428,63.39 153.174,63.39C151.258,63.39 150.095,61.974 150.095,60.521C150.095,58.922 151.452,57.655 152.995,57.655C153.759,57.655 154.588,58.002 155.167,58.542L156.691,56.453C155.835,55.664 154.312,55.104 152.995,55.085C149.78,55.085 147.286,57.571 147.286,60.528C147.286,63.485 149.774,65.941 153.065,65.941C156.009,65.941 158.386,63.903 158.386,60.754C158.386,60.426 158.354,60.092 158.303,59.744ZM161.317,65.697L164.067,65.697L164.067,55.336L161.317,55.336L161.317,65.697ZM172.681,65.96C175.907,65.96 178.375,63.614 178.375,60.528C178.375,57.417 175.907,55.058 172.686,55.058C169.466,55.058 166.999,57.417 166.999,60.528C166.999,63.614 169.46,65.96 172.681,65.96ZM172.686,63.332C171.041,63.332 169.781,62.103 169.781,60.51C169.781,58.908 171.041,57.675 172.686,57.675C174.333,57.675 175.593,58.908 175.593,60.51C175.593,62.103 174.333,63.332 172.686,63.332ZM186.902,65.697L189.652,65.697L189.652,55.336L186.902,55.336L186.902,65.697ZM199.231,55.323L199.231,60.374L193.92,55.232L193.034,55.232L193.034,65.702L195.784,65.702L195.784,60.639L201.113,65.799L201.987,65.799L201.987,55.323L199.231,55.323ZM212.464,55.336L204.737,55.336L204.737,57.905L207.225,57.905L207.225,65.697L209.982,65.697L209.982,57.905L212.464,57.905L212.464,55.336ZM221.931,57.892L221.931,55.336L215.214,55.336L215.214,65.697L221.931,65.697L221.931,63.119L217.932,63.119L217.932,61.633L221.224,61.633L221.224,59.34L217.932,59.34L217.932,57.892L221.931,57.892ZM233.795,65.697L231.018,61.538C232.033,61.075 232.812,59.995 232.812,58.703C232.812,56.845 231.21,55.336 228.974,55.336L225.04,55.336L225.054,65.697L227.804,65.697L227.804,61.197L230.575,65.697L233.795,65.697ZM227.79,57.808L228.917,57.808C229.495,57.808 230.035,58.208 230.035,58.85C230.035,59.487 229.502,59.898 228.917,59.891L227.79,59.885L227.79,57.808ZM242.561,55.323L242.561,60.374L237.252,55.232L236.366,55.232L236.366,65.702L239.116,65.702L239.116,60.639L244.445,65.799L245.318,65.799L245.318,55.323L242.561,55.323ZM255.86,65.697L258.874,65.697L254.053,55.207L252.749,55.207L247.934,65.697L250.942,65.697L251.47,64.488L255.338,64.488L255.86,65.697ZM252.337,62.477L253.404,60.022L254.464,62.477L252.337,62.477ZM265.731,65.928C267.306,65.928 268.623,65.304 269.614,64.405L268.045,62.315C267.376,62.914 266.599,63.325 265.731,63.325C264.253,63.325 262.864,62.143 262.864,60.535C262.864,58.947 264.195,57.731 265.79,57.731C266.554,57.731 267.396,58.111 268.033,58.689L269.614,56.66C268.553,55.695 267.12,55.11 265.783,55.09C262.556,55.09 260.075,57.449 260.075,60.516C260.075,63.768 262.806,65.928 265.731,65.928ZM272.364,65.697L275.114,65.697L275.114,55.336L272.364,55.336L272.364,65.697ZM283.727,65.96C286.955,65.96 289.422,63.614 289.422,60.528C289.422,57.417 286.955,55.058 283.734,55.058C280.512,55.058 278.045,57.417 278.045,60.528C278.045,63.614 280.506,65.96 283.727,65.96ZM283.734,63.332C282.087,63.332 280.828,62.103 280.828,60.51C280.828,58.908 282.087,57.675 283.734,57.675C285.379,57.675 286.639,58.908 286.639,60.51C286.639,62.103 285.379,63.332 283.734,63.332ZM298.548,55.323L298.548,60.374L293.239,55.232L292.353,55.232L292.353,65.702L295.103,65.702L295.103,60.639L300.432,65.799L301.306,65.799L301.306,55.323L298.548,55.323ZM311.847,65.697L314.861,65.697L310.039,55.207L308.736,55.207L303.921,65.697L306.928,65.697L307.457,64.488L311.325,64.488L311.847,65.697ZM308.324,62.477L309.391,60.022L310.452,62.477L308.324,62.477ZM320.227,63.113L320.227,55.336L317.477,55.336L317.477,65.697L324.192,65.697L324.192,63.113L320.227,63.113Z" style="fill:rgb(153,192,212);fill-rule:nonzero;"/>
        </g>
        <g transform="matrix(0.683405,0,0,0.683405,1.000079,3.159699)">
            <path d="M108.606,40.565C109.78,40.216 110.784,39.709 111.619,39.044C112.454,38.38 113.103,37.575 113.566,36.628C114.027,35.682 114.26,34.601 114.26,33.384L114.26,33.317C114.26,32.213 114.056,31.261 113.65,30.461C113.243,29.662 112.657,28.98 111.889,28.417C111.122,27.854 110.191,27.376 109.098,26.981C108.003,26.586 106.779,26.244 105.423,25.95C104.612,25.771 103.94,25.595 103.411,25.426C102.879,25.257 102.463,25.089 102.157,24.92C101.852,24.751 101.639,24.565 101.515,24.361C101.389,24.159 101.328,23.923 101.328,23.653L101.328,23.584C101.328,23.156 101.525,22.797 101.921,22.504C102.316,22.21 102.907,22.065 103.698,22.065C104.758,22.065 105.858,22.262 106.998,22.656C108.138,23.051 109.25,23.633 110.333,24.4L113.616,19.748C112.331,18.704 110.891,17.915 109.3,17.38C107.708,16.847 105.898,16.58 103.867,16.58C102.444,16.58 101.17,16.767 100.042,17.138C98.913,17.509 97.947,18.032 97.146,18.709C96.345,19.385 95.737,20.186 95.319,21.108C94.901,22.031 94.692,23.046 94.692,24.149L94.692,24.218C94.692,25.433 94.925,26.453 95.386,27.275C95.849,28.098 96.481,28.785 97.282,29.336C98.082,29.888 99.025,30.339 100.109,30.689C101.192,31.038 102.366,31.359 103.63,31.652C104.442,31.831 105.102,32.006 105.61,32.175C106.119,32.344 106.525,32.519 106.829,32.698C107.133,32.879 107.342,33.064 107.456,33.257C107.568,33.447 107.625,33.668 107.625,33.915L107.625,33.982C107.625,34.5 107.392,34.902 106.931,35.182C106.468,35.465 105.796,35.605 104.917,35.605C102.163,35.605 99.602,34.657 97.231,32.762L93.575,37.138C95.042,38.456 96.728,39.444 98.636,40.102C100.544,40.759 102.558,41.088 104.679,41.088C106.124,41.088 107.433,40.915 108.606,40.565ZM123.839,36.536C123.411,36.185 123.197,35.696 123.197,35.064L123.197,34.995C123.197,34.318 123.449,33.771 123.957,33.354C124.466,32.936 125.193,32.727 126.141,32.727C126.615,32.727 127.072,32.773 127.511,32.862C127.953,32.954 128.33,33.066 128.646,33.201L128.646,34.047C128.646,34.973 128.352,35.706 127.766,36.247C127.179,36.789 126.411,37.06 125.464,37.06C124.81,37.06 124.268,36.886 123.839,36.536ZM126.293,40.463C127.162,40.045 127.913,39.487 128.545,38.787L128.545,40.682L134.909,40.682L134.909,30.154C134.909,28.868 134.757,27.747 134.452,26.787C134.146,25.828 133.645,25.008 132.946,24.331C132.222,23.611 131.293,23.058 130.153,22.673C129.013,22.29 127.618,22.098 125.972,22.098C124.392,22.098 123.021,22.228 121.859,22.487C120.696,22.747 119.596,23.091 118.558,23.519L119.878,28.056C120.691,27.74 121.492,27.493 122.282,27.31C123.071,27.131 123.952,27.04 124.922,27.04C126.164,27.04 127.083,27.3 127.682,27.819C128.279,28.338 128.578,29.071 128.578,30.018L128.578,30.324C128.06,30.144 127.411,29.98 126.632,29.833C125.853,29.686 125.036,29.612 124.178,29.612C123.095,29.612 122.113,29.738 121.232,29.985C120.353,30.234 119.603,30.595 118.981,31.068C118.361,31.543 117.876,32.142 117.526,32.862C117.175,33.586 117.001,34.42 117.001,35.368L117.001,35.435C117.001,36.361 117.159,37.173 117.475,37.872C117.79,38.573 118.225,39.159 118.778,39.632C119.332,40.107 119.98,40.468 120.724,40.716C121.47,40.965 122.282,41.088 123.162,41.088C124.38,41.088 125.425,40.88 126.293,40.463ZM139.039,40.682L145.504,40.682L145.504,30.764C145.504,29.748 145.755,28.982 146.256,28.462C146.758,27.944 147.398,27.683 148.177,27.683C148.936,27.683 149.548,27.944 150.016,28.462C150.484,28.982 150.718,29.748 150.718,30.764L150.718,40.682L157.184,40.682L157.184,28.7C157.184,26.6 156.632,24.953 155.532,23.756C154.432,22.561 152.894,21.963 150.92,21.963C150.275,21.963 149.683,22.048 149.148,22.217C148.613,22.386 148.123,22.606 147.677,22.877C147.231,23.148 146.831,23.464 146.473,23.825C146.117,24.186 145.795,24.559 145.504,24.942L145.504,22.369L139.039,22.369L139.039,40.682ZM186.889,40.751C187.937,40.48 188.885,40.107 189.732,39.632C190.578,39.159 191.334,38.596 191.999,37.941C192.664,37.287 193.279,36.575 193.844,35.808L188.901,32.287C188.54,32.717 188.174,33.106 187.801,33.456C187.43,33.805 187.034,34.111 186.618,34.37C186.2,34.629 185.737,34.826 185.229,34.962C184.722,35.097 184.162,35.164 183.553,35.164C182.718,35.164 181.957,35.002 181.268,34.674C180.58,34.347 179.988,33.902 179.491,33.337C178.995,32.773 178.605,32.101 178.323,31.322C178.04,30.543 177.9,29.714 177.9,28.835L177.9,28.766C177.9,27.909 178.04,27.096 178.323,26.329C178.605,25.562 178.995,24.896 179.491,24.331C179.988,23.768 180.58,23.322 181.268,22.996C181.957,22.668 182.718,22.504 183.553,22.504C184.704,22.504 185.687,22.753 186.499,23.248C187.311,23.746 188.055,24.423 188.732,25.279L193.676,21.454C193.156,20.732 192.564,20.067 191.899,19.457C191.232,18.848 190.488,18.323 189.664,17.884C188.839,17.444 187.932,17.105 186.939,16.867C185.946,16.632 184.839,16.513 183.62,16.513C181.815,16.513 180.152,16.829 178.629,17.461C177.104,18.093 175.79,18.967 174.683,20.084C173.578,21.2 172.709,22.509 172.077,24.01C171.445,25.512 171.129,27.12 171.129,28.835L171.129,28.902C171.129,30.662 171.452,32.294 172.094,33.793C172.738,35.294 173.607,36.592 174.702,37.687C175.795,38.782 177.087,39.632 178.577,40.243C180.066,40.851 181.658,41.157 183.35,41.157C184.658,41.157 185.839,41.022 186.889,40.751ZM197.128,40.682L203.594,40.682L203.594,34.995C203.594,32.874 204.045,31.317 204.948,30.324C205.851,29.331 207.148,28.835 208.841,28.835L209.383,28.835L209.383,22.065C207.847,21.996 206.628,22.335 205.727,23.079C204.823,23.825 204.112,24.818 203.594,26.058L203.594,22.369L197.128,22.369L197.128,40.682ZM212.598,40.682L219.064,40.682L219.064,22.369L212.598,22.369L212.598,40.682ZM212.462,20.71L219.199,20.71L219.199,15.971L212.462,15.971L212.462,20.71ZM233.788,40.699C234.714,40.44 235.503,40.05 236.159,39.532C236.812,39.012 237.32,38.375 237.681,37.62C238.043,36.862 238.223,35.976 238.223,34.962L238.223,34.893C238.223,34.014 238.054,33.258 237.715,32.626C237.377,31.994 236.914,31.458 236.327,31.018C235.741,30.579 235.052,30.206 234.263,29.901C233.472,29.596 232.626,29.32 231.723,29.071C230.754,28.778 230.015,28.524 229.507,28.31C228.999,28.096 228.745,27.809 228.745,27.446L228.745,27.379C228.745,27.131 228.868,26.923 229.117,26.752C229.365,26.583 229.738,26.498 230.234,26.498C230.956,26.498 231.802,26.652 232.773,26.956C233.743,27.26 234.702,27.673 235.65,28.191L237.85,24.129C236.79,23.452 235.605,22.927 234.296,22.554C232.987,22.183 231.657,21.996 230.303,21.996C229.241,21.996 228.265,22.131 227.374,22.402C226.483,22.673 225.709,23.063 225.055,23.571C224.4,24.079 223.887,24.711 223.515,25.466C223.143,26.222 222.955,27.086 222.955,28.056L222.955,28.123C222.955,29.049 223.126,29.828 223.464,30.46C223.803,31.092 224.264,31.627 224.851,32.068C225.438,32.508 226.127,32.88 226.917,33.185C227.706,33.489 228.552,33.755 229.455,33.98C230.426,34.251 231.16,34.487 231.657,34.691C232.151,34.893 232.401,35.176 232.401,35.537L232.401,35.605C232.401,36.259 231.859,36.587 230.776,36.587C229.828,36.587 228.806,36.413 227.713,36.062C226.618,35.712 225.54,35.187 224.48,34.487L222.076,38.38C223.362,39.306 224.739,39.989 226.205,40.428C227.673,40.869 229.184,41.088 230.742,41.088C231.847,41.088 232.864,40.958 233.788,40.699ZM251.493,40.768C252.239,40.575 252.904,40.321 253.491,40.005L253.491,34.962C253.106,35.142 252.712,35.289 252.305,35.401C251.899,35.515 251.481,35.57 251.053,35.57C250.467,35.57 250.025,35.43 249.733,35.147C249.438,34.866 249.293,34.398 249.293,33.743L249.293,27.548L253.558,27.548L253.558,22.369L249.293,22.369L249.293,17.731L242.827,17.731L242.827,22.369L240.66,22.369L240.66,27.548L242.827,27.548L242.827,34.995C242.827,37.185 243.372,38.741 244.46,39.668C245.548,40.592 247.07,41.055 249.021,41.055C249.923,41.055 250.749,40.958 251.493,40.768ZM264.052,20.744L268.588,20.744L273.564,16.411L267.573,14.482L264.052,20.744ZM265,35.303C264.526,35.079 264.114,34.783 263.765,34.413C263.414,34.044 263.143,33.613 262.953,33.121C262.76,32.628 262.665,32.103 262.665,31.543L262.665,31.476C262.665,30.938 262.754,30.425 262.936,29.932C263.115,29.438 263.369,29.009 263.696,28.639C264.024,28.27 264.425,27.977 264.898,27.765C265.373,27.553 265.903,27.446 266.49,27.446C267.053,27.446 267.573,27.559 268.046,27.782C268.521,28.007 268.932,28.303 269.282,28.673C269.633,29.041 269.903,29.472 270.094,29.965C270.286,30.456 270.383,30.983 270.383,31.543L270.383,31.61C270.383,32.147 270.291,32.661 270.112,33.155C269.93,33.646 269.676,34.077 269.35,34.447C269.022,34.816 268.623,35.107 268.148,35.319C267.675,35.532 267.143,35.639 266.557,35.639C265.993,35.639 265.473,35.527 265,35.303ZM270.552,40.361C271.792,39.853 272.864,39.164 273.768,38.297C274.669,37.427 275.375,36.413 275.883,35.249C276.391,34.087 276.645,32.852 276.645,31.543L276.645,31.475C276.645,30.166 276.396,28.935 275.9,27.785C275.403,26.633 274.705,25.63 273.802,24.773C272.899,23.915 271.833,23.231 270.602,22.725C269.372,22.217 268.024,21.963 266.557,21.963C265.091,21.963 263.737,22.217 262.494,22.725C261.254,23.231 260.181,23.92 259.28,24.789C258.375,25.659 257.672,26.673 257.163,27.835C256.655,28.999 256.401,30.234 256.401,31.543L256.401,31.61C256.401,32.919 256.65,34.149 257.147,35.299C257.643,36.451 258.342,37.461 259.245,38.33C260.147,39.199 261.213,39.882 262.444,40.378C263.675,40.875 265.022,41.122 266.49,41.122C267.956,41.122 269.31,40.869 270.552,40.361ZM288.787,35.401C288.337,35.199 287.944,34.912 287.607,34.539C287.271,34.166 287.007,33.726 286.816,33.218C286.625,32.71 286.53,32.152 286.53,31.543L286.53,31.475C286.53,30.866 286.625,30.313 286.816,29.816C287.007,29.32 287.271,28.885 287.607,28.512C287.944,28.141 288.337,27.852 288.787,27.65C289.237,27.446 289.72,27.345 290.236,27.345C291.291,27.345 292.179,27.728 292.898,28.496C293.617,29.263 293.978,30.256 293.978,31.475L293.978,31.543C293.978,32.783 293.617,33.788 292.898,34.555C292.179,35.323 291.291,35.706 290.236,35.706C289.72,35.706 289.237,35.605 288.787,35.401ZM295.327,40.428C296.305,39.989 297.16,39.357 297.893,38.532C298.625,37.71 299.21,36.705 299.648,35.52C300.088,34.335 300.307,32.997 300.307,31.508L300.307,31.441C300.307,29.975 300.088,28.654 299.646,27.481C299.207,26.307 298.615,25.314 297.869,24.502C297.125,23.689 296.261,23.063 295.28,22.623C294.299,22.183 293.265,21.963 292.182,21.963C291.505,21.963 290.89,22.041 290.338,22.2C289.785,22.357 289.288,22.566 288.849,22.825C288.408,23.086 288.008,23.384 287.647,23.723C287.286,24.061 286.946,24.423 286.63,24.806L286.666,15.971L280.199,15.971L280.199,40.682L286.666,40.682L286.666,38.449C286.958,38.787 287.284,39.121 287.644,39.447C288.005,39.775 288.409,40.057 288.861,40.293C289.31,40.53 289.812,40.722 290.363,40.869C290.913,41.015 291.539,41.088 292.237,41.088C293.317,41.088 294.347,40.869 295.327,40.428ZM309.854,36.536C309.424,36.185 309.21,35.696 309.21,35.064L309.21,34.995C309.21,34.318 309.464,33.771 309.972,33.354C310.479,32.936 311.208,32.727 312.156,32.727C312.629,32.727 313.087,32.773 313.526,32.862C313.966,32.954 314.344,33.066 314.66,33.201L314.66,34.047C314.66,34.973 314.367,35.706 313.781,36.247C313.194,36.789 312.426,37.06 311.479,37.06C310.823,37.06 310.282,36.886 309.854,36.536ZM312.308,40.463C313.175,40.045 313.926,39.487 314.558,38.787L314.558,40.682L320.922,40.682L320.922,30.154C320.922,28.868 320.77,27.747 320.466,26.787C320.161,25.828 319.658,25.008 318.959,24.331C318.237,23.611 317.306,23.058 316.166,22.673C315.026,22.29 313.633,22.098 311.985,22.098C310.405,22.098 309.035,22.228 307.873,22.487C306.711,22.747 305.611,23.091 304.573,23.519L305.892,28.056C306.704,27.74 307.507,27.493 308.296,27.31C309.086,27.131 309.966,27.04 310.937,27.04C312.177,27.04 313.097,27.3 313.695,27.819C314.294,28.338 314.593,29.071 314.593,30.018L314.593,30.324C314.073,30.144 313.424,29.98 312.645,29.833C311.868,29.686 311.049,29.612 310.191,29.612C309.108,29.612 308.127,29.738 307.246,29.985C306.367,30.234 305.616,30.595 304.996,31.068C304.374,31.543 303.889,32.142 303.54,32.862C303.19,33.586 303.015,34.42 303.015,35.368L303.015,35.435C303.015,36.361 303.174,37.173 303.49,37.872C303.806,38.573 304.238,39.159 304.792,39.632C305.345,40.107 305.994,40.468 306.739,40.716C307.483,40.965 308.296,41.088 309.177,41.088C310.395,41.088 311.438,40.88 312.308,40.463ZM325.188,40.682L331.654,40.682L331.654,15.97L325.188,15.97L325.188,40.682Z" style="fill:rgb(0,68,137);fill-rule:nonzero;"/>
        </g>
        <g transform="matrix(0.683405,0,0,0.683405,1.000079,3.159699)">
            <path d="M64.747,23.821L79.329,38.403C80.667,39.74 80.667,41.927 79.329,43.264L64.747,57.847C63.41,59.184 61.223,59.184 59.886,57.847L42.873,40.834L59.886,23.821C61.223,22.483 63.41,22.483 64.747,23.821Z" style="fill:rgb(153,192,212);fill-rule:nonzero;"/>
        </g>
        <g transform="matrix(0.683405,0,0,0.683405,1.000079,3.159699)">
            <path d="M57.18,16.253L42.597,1.669C41.26,0.333 39.073,0.333 37.736,1.669L23.154,16.253C21.816,17.59 21.816,19.777 23.154,21.114L40.167,38.127L57.18,21.114C58.517,19.777 58.517,17.59 57.18,16.253ZM40.015,28.568C38.612,28.568 37.256,28.378 35.947,27.998C34.638,27.619 33.587,27.124 32.794,26.515L34.187,23.426C34.948,23.983 35.85,24.431 36.898,24.769C37.945,25.106 38.991,25.275 40.04,25.275C41.205,25.275 42.066,25.101 42.624,24.755C43.181,24.409 43.46,23.949 43.46,23.374C43.46,22.953 43.294,22.602 42.965,22.323C42.636,22.045 42.214,21.821 41.7,21.652C41.183,21.482 40.488,21.296 39.608,21.094C38.258,20.773 37.151,20.452 36.29,20.131C35.429,19.81 34.69,19.295 34.073,18.587C33.456,17.878 33.149,16.932 33.149,15.75C33.149,14.718 33.426,13.785 33.985,12.95C34.541,12.114 35.382,11.45 36.506,10.96C37.629,10.471 39.001,10.226 40.621,10.226C41.753,10.226 42.86,10.362 43.941,10.631C45.021,10.902 45.967,11.29 46.778,11.796L45.511,14.912C43.873,13.984 42.235,13.52 40.596,13.52C39.448,13.52 38.6,13.705 38.05,14.076C37.502,14.449 37.228,14.939 37.228,15.546C37.228,16.154 37.544,16.606 38.177,16.901C38.811,17.197 39.777,17.488 41.078,17.776C42.428,18.097 43.535,18.418 44.398,18.739C45.259,19.06 45.998,19.566 46.614,20.258C47.23,20.95 47.539,21.888 47.539,23.07C47.539,24.085 47.256,25.009 46.69,25.845C46.125,26.681 45.275,27.343 44.144,27.833C43.012,28.323 41.636,28.568 40.015,28.568Z" style="fill:rgb(0,68,137);fill-rule:nonzero;"/>
        </g>
        <g transform="matrix(0.683405,0,0,0.683405,1.000079,3.159699)">
            <path d="M23.153,65.415L37.735,79.997C39.073,81.334 41.259,81.334 42.596,79.997L57.179,65.415C58.516,64.078 58.516,61.891 57.179,60.554L40.166,43.541L23.153,60.554C21.816,61.891 21.816,64.078 23.153,65.415ZM41.306,71.441C39.499,71.441 37.866,71.05 36.404,70.264C34.943,69.479 33.795,68.389 32.959,66.996C32.122,65.602 31.704,64.027 31.704,62.27C31.704,60.515 32.122,58.94 32.959,57.546C33.795,56.152 34.943,55.064 36.404,54.278C37.866,53.492 39.507,53.099 41.331,53.099C42.869,53.099 44.258,53.37 45.499,53.91C46.741,54.452 47.784,55.228 48.628,56.241L45.993,58.673C44.793,57.289 43.307,56.597 41.533,56.597C40.437,56.597 39.457,56.837 38.596,57.319C37.733,57.799 37.063,58.471 36.582,59.332C36.1,60.194 35.86,61.174 35.86,62.27C35.86,63.369 36.1,64.348 36.582,65.209C37.063,66.072 37.733,66.742 38.596,67.224C39.457,67.705 40.437,67.946 41.533,67.946C43.307,67.946 44.793,67.245 45.993,65.843L48.628,68.275C47.784,69.305 46.736,70.091 45.487,70.631C44.236,71.172 42.842,71.441 41.306,71.441Z" style="fill:rgb(0,68,137);fill-rule:nonzero;"/>
        </g>
        <g transform="matrix(0.683405,0,0,0.683405,1.000079,3.159699)">
            <path d="M15.585,57.847L1.003,43.265C-0.334,41.928 -0.334,39.741 1.003,38.404L15.585,23.822C16.923,22.484 19.109,22.484 20.446,23.822L37.459,40.834L20.446,57.847C19.109,59.185 16.923,59.185 15.585,57.847Z" style="fill:rgb(153,192,212);fill-rule:nonzero;"/>
        </g>
    </g>
</svg>
